<mxfile host="app.diagrams.net" modified="2022-08-30T10:33:16.834Z" agent="5.0 (Windows NT 10.0; Win64; x64) AppleWebKit/537.36 (KHTML, like Gecko) Chrome/104.0.5112.102 Safari/537.36 Edg/104.0.1293.70" etag="uSpfmJjstb0dF-jx3SH5" version="20.2.7" type="github">
  <diagram id="kPWaynz6aoJH5VI-K3gA" name="第 1 页">
    <mxGraphModel dx="476" dy="329" grid="1" gridSize="1" guides="1" tooltips="1" connect="1" arrows="1" fold="1" page="1" pageScale="1" pageWidth="827" pageHeight="1169" math="0" shadow="0">
      <root>
        <mxCell id="0" />
        <mxCell id="1" parent="0" />
        <mxCell id="ETjB2wZACqDURuIevtS6-5" value="" style="edgeStyle=orthogonalEdgeStyle;rounded=0;orthogonalLoop=1;jettySize=auto;html=1;" edge="1" parent="1" source="ETjB2wZACqDURuIevtS6-1" target="ETjB2wZACqDURuIevtS6-4">
          <mxGeometry relative="1" as="geometry" />
        </mxCell>
        <mxCell id="ETjB2wZACqDURuIevtS6-1" value="编码器位置反馈" style="rounded=1;whiteSpace=wrap;html=1;" vertex="1" parent="1">
          <mxGeometry x="90" y="160" width="120" height="30" as="geometry" />
        </mxCell>
        <mxCell id="ETjB2wZACqDURuIevtS6-3" value="相机脱靶量" style="rounded=1;whiteSpace=wrap;html=1;" vertex="1" parent="1">
          <mxGeometry x="90" y="250" width="120" height="30" as="geometry" />
        </mxCell>
        <mxCell id="ETjB2wZACqDURuIevtS6-13" style="edgeStyle=orthogonalEdgeStyle;rounded=0;orthogonalLoop=1;jettySize=auto;html=1;exitX=1;exitY=0.5;exitDx=0;exitDy=0;entryX=0.5;entryY=0;entryDx=0;entryDy=0;entryPerimeter=0;" edge="1" parent="1" source="ETjB2wZACqDURuIevtS6-4" target="ETjB2wZACqDURuIevtS6-14">
          <mxGeometry relative="1" as="geometry">
            <mxPoint x="487" y="250" as="targetPoint" />
          </mxGeometry>
        </mxCell>
        <mxCell id="ETjB2wZACqDURuIevtS6-4" value="" style="rounded=1;whiteSpace=wrap;html=1;strokeColor=none;" vertex="1" parent="1">
          <mxGeometry x="290" y="145" width="120" height="60" as="geometry" />
        </mxCell>
        <mxCell id="ETjB2wZACqDURuIevtS6-8" value="" style="curved=1;endArrow=classic;html=1;rounded=0;" edge="1" parent="1">
          <mxGeometry width="50" height="50" relative="1" as="geometry">
            <mxPoint x="292" y="175" as="sourcePoint" />
            <mxPoint x="408" y="175" as="targetPoint" />
            <Array as="points">
              <mxPoint x="306" y="175" />
              <mxPoint x="316" y="191" />
              <mxPoint x="324" y="155" />
              <mxPoint x="332" y="195" />
              <mxPoint x="340" y="155" />
              <mxPoint x="348" y="195" />
              <mxPoint x="356" y="155" />
              <mxPoint x="364" y="195" />
              <mxPoint x="372" y="155" />
              <mxPoint x="380" y="191" />
              <mxPoint x="392" y="175" />
            </Array>
          </mxGeometry>
        </mxCell>
        <mxCell id="ETjB2wZACqDURuIevtS6-10" value="" style="edgeStyle=orthogonalEdgeStyle;rounded=0;orthogonalLoop=1;jettySize=auto;html=1;" edge="1" parent="1" target="ETjB2wZACqDURuIevtS6-11">
          <mxGeometry relative="1" as="geometry">
            <mxPoint x="210" y="266" as="sourcePoint" />
          </mxGeometry>
        </mxCell>
        <mxCell id="ETjB2wZACqDURuIevtS6-17" style="edgeStyle=orthogonalEdgeStyle;rounded=0;orthogonalLoop=1;jettySize=auto;html=1;exitX=1;exitY=0.5;exitDx=0;exitDy=0;entryX=0;entryY=0.5;entryDx=0;entryDy=0;entryPerimeter=0;" edge="1" parent="1" source="ETjB2wZACqDURuIevtS6-11" target="ETjB2wZACqDURuIevtS6-14">
          <mxGeometry relative="1" as="geometry" />
        </mxCell>
        <mxCell id="ETjB2wZACqDURuIevtS6-11" value="" style="rounded=1;whiteSpace=wrap;html=1;strokeColor=none;" vertex="1" parent="1">
          <mxGeometry x="290" y="236" width="120" height="60" as="geometry" />
        </mxCell>
        <mxCell id="ETjB2wZACqDURuIevtS6-9" value="" style="curved=1;endArrow=classic;html=1;rounded=0;" edge="1" parent="1">
          <mxGeometry width="50" height="50" relative="1" as="geometry">
            <mxPoint x="292.9999999999999" y="266" as="sourcePoint" />
            <mxPoint x="409" y="266" as="targetPoint" />
            <Array as="points">
              <mxPoint x="307" y="266" />
              <mxPoint x="317" y="282" />
              <mxPoint x="325" y="246" />
              <mxPoint x="333" y="286" />
              <mxPoint x="341" y="246" />
              <mxPoint x="349" y="286" />
              <mxPoint x="357" y="246" />
              <mxPoint x="365" y="286" />
              <mxPoint x="373" y="246" />
              <mxPoint x="381" y="282" />
              <mxPoint x="393" y="266" />
            </Array>
          </mxGeometry>
        </mxCell>
        <mxCell id="ETjB2wZACqDURuIevtS6-14" value="" style="verticalLabelPosition=bottom;verticalAlign=top;html=1;shape=mxgraph.flowchart.or;strokeColor=default;" vertex="1" parent="1">
          <mxGeometry x="460" y="246" width="40" height="40" as="geometry" />
        </mxCell>
        <mxCell id="ETjB2wZACqDURuIevtS6-15" value="" style="shape=image;html=1;verticalAlign=top;verticalLabelPosition=bottom;labelBackgroundColor=#ffffff;imageAspect=0;aspect=fixed;image=https://cdn3.iconfinder.com/data/icons/user-interface-169/32/plus-128.png;strokeColor=default;" vertex="1" parent="1">
          <mxGeometry x="470" y="246" width="20" height="20" as="geometry" />
        </mxCell>
        <mxCell id="ETjB2wZACqDURuIevtS6-16" value="" style="shape=image;html=1;verticalAlign=top;verticalLabelPosition=bottom;labelBackgroundColor=#ffffff;imageAspect=0;aspect=fixed;image=https://cdn3.iconfinder.com/data/icons/user-interface-169/32/plus-128.png;strokeColor=default;" vertex="1" parent="1">
          <mxGeometry x="460" y="256" width="20" height="20" as="geometry" />
        </mxCell>
        <mxCell id="ETjB2wZACqDURuIevtS6-19" value="编码器延迟" style="text;html=1;resizable=0;autosize=1;align=center;verticalAlign=middle;points=[];fillColor=none;strokeColor=none;rounded=0;fontFamily=微软雅黑;" vertex="1" parent="1">
          <mxGeometry x="310.5" y="136" width="79" height="27" as="geometry" />
        </mxCell>
        <mxCell id="ETjB2wZACqDURuIevtS6-21" value="数据延迟" style="text;html=1;resizable=0;autosize=1;align=center;verticalAlign=middle;points=[];fillColor=none;strokeColor=none;rounded=0;fontFamily=微软雅黑;" vertex="1" parent="1">
          <mxGeometry x="315" y="224" width="67" height="27" as="geometry" />
        </mxCell>
      </root>
    </mxGraphModel>
  </diagram>
</mxfile>
